# xmcd CD database file
#
# Track frame offsets:
#	150
#	27783
#	52236
#	76406
#	106320
#	124816
#	145687
#	170002
#	196508
#	228355
#	250427
#	274345
#
# Disc length: 4045 seconds
#
# Revision: 4
# Processed by: cddbd v1.5.2PL0 Copyright (c) Steve Scherf et al.
# Submitted via: CDex 1.51
#
DISCID=a50fcb0c
DTITLE=Chris Jones and Steve Baker - Smoke And Noise
DYEAR=2003
DGENRE=Blues
TTITLE0=Soul Storm Comin'
TTITLE1=I Don't Know Why
TTITLE2=Bourgeois Blues
TTITLE3=Roadhouses and Automobiles
TTITLE4=God Moves On The Water
TTITLE5=Ain't Got Love
TTITLE6=Willing
TTITLE7=If Walls Could Talk
TTITLE8=Long After Your're Gone
TTITLE9=Set 'em up, Joe
TTITLE10=Cold Creature
TTITLE11=St. James Infirmary
EXTD=YEAR: 2003
EXTT0=
EXTT1=
EXTT2=
EXTT3=
EXTT4=
EXTT5=
EXTT6=
EXTT7=
EXTT8=
EXTT9=
EXTT10=
EXTT11=
PLAYORDER=
